<svg width="70" height="70" viewBox="0 0 70 70" fill="none" xmlns="http://www.w3.org/2000/svg">
<path d="M35 70C54.33 70 70 54.33 70 35C70 15.67 54.33 0 35 0C15.67 0 0 15.67 0 35C0 54.33 15.67 70 35 70Z" fill="#3AA96C"/>
<path d="M57.3333 50.7312C56.7504 52.3412 55.9448 53.8698 54.9533 55.2841C49.7305 62.7356 40.5448 65.4284 32.4461 63.0612C29.2261 62.1213 26.176 60.3798 23.6175 57.8212L15.886 50.0898L15.0274 49.2655L9.8689 44.3126C8.96313 44.3126 8.1189 44.0554 7.40181 43.6112C6.06606 42.7854 5.17603 41.3054 5.17603 39.6198C5.17603 37.9327 6.06606 36.4528 7.40181 35.627C8.1189 35.1841 8.96327 34.927 9.8689 34.927C8.96313 34.927 8.1189 34.6698 7.40181 34.2256C6.06606 33.3998 5.17603 31.9213 5.17603 30.2356C5.17603 28.5485 6.06606 27.0699 7.40181 26.2442C8.1189 25.7999 8.96327 25.5429 9.8689 25.5429V20.0215C8.96313 20.0215 8.1189 19.7672 7.40181 19.3228C6.06606 18.4957 5.17603 17.0171 5.17603 15.3315C5.17603 13.6444 6.06606 12.1644 7.40181 11.3386C8.1189 10.8958 8.96327 10.6386 9.8689 10.6386L39.8532 25.1771L41.0147 25.7385L42.3218 26.3728C42.4204 25.1985 42.6147 24.0256 42.9047 22.8613C43.2875 21.3226 44.3204 20.117 45.6418 19.4713C46.6946 18.9514 47.9318 18.787 49.1617 19.0928C51.9303 19.7799 53.6174 22.5828 52.9302 25.35C52.1602 28.4457 52.6431 31.6571 54.2917 34.3886C54.2918 34.3884 60.139 42.9455 57.3333 50.7312Z" fill="#FFDCBF"/>
<path d="M32.446 63.0612C29.226 62.1213 26.1759 60.3798 23.6174 57.8212L15.8859 50.0898L15.0273 49.2655L28.4288 52.0298C20.2817 52.0298 26.8303 59.5698 32.446 63.0612Z" fill="#FCBB8D"/>
<path d="M46.1688 40.8871C45.9488 41.0196 45.7073 41.0838 45.4679 41.0838C45.0063 41.0838 44.5546 40.8482 44.2995 40.4217C41.7155 36.1319 40.5703 31.2499 40.9832 26.3038C40.9853 26.2084 40.9929 26.0155 41.0144 25.7392L42.3211 26.372C42.4204 25.1978 42.6151 24.0255 42.9054 22.8611C43.2871 21.3229 44.3211 20.1174 45.6414 19.4707C43.7739 23.0693 43.7097 26.3447 43.7097 26.3837L43.7038 26.4888C43.6882 26.6679 43.6764 26.8471 43.6667 27.0243C43.4544 30.5178 44.1262 33.9644 45.6218 37.1248C45.9255 37.7674 46.2625 38.3984 46.6344 39.0157C47.0218 39.6622 46.8154 40.4996 46.1688 40.8871Z" fill="#FCBB8D"/>
<path d="M39.8537 25.1765V47.8351C39.8537 50.1524 37.659 52.0295 34.9483 52.0295H17.8259L15.8863 50.0899L9.86919 44.3123C8.9637 44.3123 8.11864 44.0553 7.4021 43.6113L7.45228 43.5439C9.20364 41.1895 9.18327 37.9595 7.4021 35.6274C8.11864 35.1833 8.96384 34.9264 9.86919 34.9264C8.9637 34.9264 8.11864 34.6694 7.4021 34.2255L7.72079 33.8286C9.31233 31.8468 9.39505 29.0496 7.92341 26.9775L7.4021 26.2436C8.11864 25.7995 8.96384 25.5426 9.86919 25.5426V20.022C8.9637 20.022 8.11864 19.7669 7.4021 19.3228L8.2179 17.9465C9.22976 16.2397 9.18901 14.1072 8.1129 12.44L7.4021 11.3389C8.11864 10.8948 8.96384 10.6379 9.86919 10.6379L39.8537 25.1765Z" fill="#FCBB8D"/>
<path d="M9.86928 20.5468V8.79414C9.86928 6.47744 12.0653 4.59837 14.7746 4.59837H37.4156C40.1251 4.59837 42.321 6.47744 42.321 8.79414V47.8351C42.321 50.1518 40.125 52.0295 37.4156 52.0295H14.7745C12.0653 52.0295 9.86914 50.1518 9.86914 47.8351V45.2423C9.86928 45.2423 9.86928 20.5468 9.86928 20.5468Z" fill="#063057"/>
<path d="M39.8557 11.8271H12.3342V44.8014H39.8557V11.8271Z" fill="#F2F2F7"/>
<path d="M66.8434 49.5455C63.7906 56.2212 58.6991 61.7698 52.3649 65.3954C49.0321 67.304 45.3549 68.6797 41.4507 69.4069L36.8435 64.7998L59.4706 42.1727L66.8434 49.5455Z" fill="#2196F3"/>
<path d="M30.2856 9.80029H21.9046C21.2997 9.80029 20.8093 9.31002 20.8093 8.70504C20.8093 8.1002 21.2996 7.60979 21.9046 7.60979H30.2856C30.8904 7.60979 31.3808 8.10006 31.3808 8.70504C31.381 9.31002 30.8904 9.80029 30.2856 9.80029Z" fill="#495B94"/>
<path d="M26.0959 50.4821C27.2371 50.4821 28.1623 49.5569 28.1623 48.4157C28.1623 47.2745 27.2371 46.3493 26.0959 46.3493C24.9547 46.3493 24.0295 47.2745 24.0295 48.4157C24.0295 49.5569 24.9547 50.4821 26.0959 50.4821Z" fill="#495B94"/>
<path d="M52.3647 65.3956C49.0319 67.3042 45.3547 68.6798 41.4504 69.4071L36.8433 64.7999L44.3061 57.3371L52.3647 65.3956Z" fill="#2285D5"/>
<path d="M19.6806 20.0485H17.8298V21.8994H19.6806V20.0485Z" fill="#495B94"/>
<path d="M19.6806 34.7286H17.8298V36.5794H19.6806V34.7286Z" fill="#495B94"/>
<path d="M29.0842 16.6227V25.3251H37.7865V16.6227H29.0842ZM35.6519 23.1904H31.2187V18.7571H35.6519V23.1904Z" fill="#495B94"/>
<path d="M34.3607 20.0485H32.5098V21.8993H34.3607V20.0485Z" fill="#495B94"/>
<path d="M27.0204 31.0901V29.2395H25.1697V31.0901V32.9409H27.0204V32.9916V34.8422H28.8713V32.9916V31.1407H27.0204V31.0901Z" fill="#495B94"/>
<path d="M34.0847 26.8849V28.7356H35.9356H37.7864V26.8849H35.9356H34.0847Z" fill="#495B94"/>
<path d="M27.0707 34.8799H25.22V36.7307H27.0707V34.8799Z" fill="#495B94"/>
<path d="M25.1695 27.3886H23.3186V29.2395H25.1695V27.3886Z" fill="#495B94"/>
<path d="M37.7479 30.8828H35.897V32.7337H37.7479V30.8828Z" fill="#495B94"/>
<path d="M37.7479 32.7328H35.897V34.5837H37.7479V32.7328Z" fill="#495B94"/>
<path d="M30.3436 36.3043H28.4927V38.1552H30.3436V36.3043Z" fill="#495B94"/>
<path d="M30.3436 38.1542H28.4927V40.0051H30.3436V38.1542Z" fill="#495B94"/>
<path d="M35.8969 34.4528H34.046H32.1951V36.3037V38.1546V40.0055H34.046H35.8969H37.7478V38.1546V36.3037V34.4528H35.8969ZM35.8969 38.1545H34.046V36.3036H35.8969V38.1545Z" fill="#495B94"/>
<path d="M31.5024 27.0641H29.6515H27.8008V28.9149H29.6515V30.7657H31.5024V32.6166H33.3531V30.7657V28.9149H31.5024V27.0641Z" fill="#495B94"/>
<path d="M18.6729 27.3886V29.2395H20.5236V27.3886V25.3249H23.1061V16.6225H14.4038V25.3249H18.673V27.3886H18.6729ZM16.5384 18.7571H20.9716V23.1903H16.5384V18.7571Z" fill="#495B94"/>
<path d="M16.2546 27.3886H14.4038V31.303V32.0919V40.0054H23.1061V31.303H16.2546V27.3886ZM16.5383 33.4376H20.9715V37.8708H16.5383V33.4376Z" fill="#495B94"/>
<path d="M27.0204 23.7499V21.8993V20.0485H25.1697V21.8993V23.7499V25.6007H27.0204V23.7499Z" fill="#495B94"/>
</svg>
