<svg width="20" height="20" viewBox="0 0 20 20" fill="none" xmlns="http://www.w3.org/2000/svg">
<path d="M0 19.9999H9.09088V10.9089H0V19.9999ZM1.81804 12.7272H7.27265V18.1677H1.81804V12.7272Z" fill="white"/>
<path d="M5.45449 14.5452H3.63635V16.3636H5.45449V14.5452Z" fill="white"/>
<path d="M16.3637 18.1818H14.5451V20H16.3637V18.1818Z" fill="white"/>
<path d="M20 18.1818H18.1815V20H20V18.1818Z" fill="white"/>
<path d="M18.1817 12.7272H16.3636V10.9089H10.9089V19.9999H12.7272V14.5452H14.5451V16.3636H19.9998V10.9089H18.1817V12.7272Z" fill="white"/>
<path d="M0 9.09108H9.09088V0H0V9.09108ZM1.81804 1.81804H7.27265V7.27265H1.81804V1.81804Z" fill="white"/>
<path d="M5.45449 3.63632H3.63635V5.45461H5.45449V3.63632Z" fill="white"/>
<path d="M10.9089 0V9.09108H20V0H10.9089ZM18.1817 7.27265H12.7272V1.81804H18.1817V7.27265Z" fill="white"/>
<path d="M16.3637 3.63632H14.5451V5.45461H16.3637V3.63632Z" fill="white"/>
</svg>
