<svg width="20" height="20" viewBox="0 0 20 20" fill="none" xmlns="http://www.w3.org/2000/svg">
<path d="M0 19.9999H9.09088V10.9089H0V19.9999ZM1.81804 12.7272H7.27265V18.1677H1.81804V12.7272Z" fill="#2196F3"/>
<path d="M5.45437 14.5452H3.63623V16.3636H5.45437V14.5452Z" fill="#2196F3"/>
<path d="M16.3638 18.1818H14.5452V20H16.3638V18.1818Z" fill="#2196F3"/>
<path d="M19.9999 18.1818H18.1814V20H19.9999V18.1818Z" fill="#2196F3"/>
<path d="M18.1817 12.7272H16.3637V10.9089H10.9089V19.9999H12.7273V14.5452H14.5452V16.3636H19.9999V10.9089H18.1817V12.7272Z" fill="#2196F3"/>
<path d="M0 9.09108H9.09088V0H0V9.09108ZM1.81804 1.81804H7.27265V7.27265H1.81804V1.81804Z" fill="#2196F3"/>
<path d="M5.45437 3.63635H3.63623V5.45464H5.45437V3.63635Z" fill="#2196F3"/>
<path d="M10.9089 0V9.09108H20.0001V0H10.9089ZM18.1817 7.27265H12.7273V1.81804H18.1817V7.27265V7.27265Z" fill="#2196F3"/>
<path d="M16.3638 3.63635H14.5452V5.45464H16.3638V3.63635Z" fill="#2196F3"/>
</svg>
